<?xml version="1.0" standalone="no"?>
<!DOCTYPE svg PUBLIC "-//W3C//DTD SVG 20010904//EN"
 "http://www.w3.org/TR/2001/REC-SVG-20010904/DTD/svg10.dtd">
<svg version="1.0" xmlns="http://www.w3.org/2000/svg"
 width="512.000000pt" height="512.000000pt" viewBox="0 0 512.000000 512.000000"
 preserveAspectRatio="xMidYMid meet">

<g transform="translate(0.000000,512.000000) scale(0.100000,-0.100000)"
fill="#000000" stroke="none">
<path d="M4400 4465 c-20 -9 -147 -127 -302 -282 l-267 -267 -118 61 c-270
139 -548 228 -838 269 -144 20 -456 23 -595 5 -608 -77 -1154 -355 -1653 -840
-219 -213 -443 -488 -573 -704 -46 -75 -49 -85 -49 -147 0 -78 15 -107 171
-325 250 -352 561 -660 907 -900 l99 -68 -260 -261 c-255 -256 -260 -262 -272
-316 -35 -161 107 -293 270 -250 42 11 184 151 1888 1853 1151 1150 1851 1857
1864 1882 48 91 14 214 -74 272 -50 34 -144 42 -198 18z m-1530 -650 c115 -19
290 -64 385 -100 102 -38 255 -107 255 -114 0 -3 -88 -94 -195 -201 l-194
-194 -43 32 c-75 56 -167 104 -261 135 -88 30 -99 31 -257 31 -159 0 -168 -1
-260 -32 -269 -90 -467 -290 -556 -562 -26 -79 -28 -96 -28 -250 0 -158 1
-169 31 -257 31 -94 79 -186 135 -261 l32 -43 -211 -210 -210 -211 -104 67
c-187 121 -301 216 -499 415 -173 173 -281 298 -390 452 l-33 48 36 53 c138
200 458 540 655 696 394 311 792 480 1237 525 82 8 383 -4 475 -19z m-240
-835 c49 -9 134 -44 170 -69 12 -9 -40 -65 -280 -306 -162 -162 -298 -295
-302 -295 -14 0 -68 127 -79 183 -32 175 72 372 236 448 93 44 168 55 255 39z"/>
<path d="M4446 3276 c-97 -36 -157 -145 -135 -246 8 -39 28 -69 101 -157 96
-113 238 -301 238 -313 0 -4 -30 -47 -66 -96 -314 -422 -699 -758 -1093 -954
-301 -150 -554 -215 -876 -226 -181 -6 -212 -13 -262 -57 -95 -83 -96 -224 -3
-314 52 -51 86 -58 260 -56 682 8 1342 313 1916 887 175 175 293 314 422 494
158 220 187 288 163 377 -30 114 -409 608 -498 650 -50 24 -119 29 -167 11z"/>
</g>
</svg>
