<?xml version="1.0" standalone="no"?>
<!DOCTYPE svg PUBLIC "-//W3C//DTD SVG 20010904//EN"
 "http://www.w3.org/TR/2001/REC-SVG-20010904/DTD/svg10.dtd">
<svg version="1.0" xmlns="http://www.w3.org/2000/svg"
 width="512.000000pt" height="512.000000pt" viewBox="0 0 512.000000 512.000000"
 preserveAspectRatio="xMidYMid meet">

<g transform="translate(0.000000,512.000000) scale(0.100000,-0.100000)"
fill="#000000" stroke="none">
<path d="M2345 3813 c-743 -91 -1355 -511 -1690 -1160 l-47 -93 47 -92 c107
-208 209 -350 370 -517 185 -191 353 -314 586 -430 302 -150 606 -221 949
-221 346 0 634 67 945 219 236 116 404 239 595 437 157 163 259 306 365 512
l47 92 -46 91 c-326 631 -936 1063 -1631 1154 -105 14 -405 19 -490 8z m392
-328 c184 -39 328 -114 464 -242 156 -147 257 -335 290 -537 17 -106 7 -300
-21 -396 -97 -341 -378 -603 -722 -674 -99 -21 -277 -21 -376 0 -366 75 -661
370 -736 736 -20 97 -21 275 -1 365 39 184 114 328 242 464 138 146 306 241
503 285 78 17 275 17 357 -1z"/>
<path d="M2410 3164 c-214 -56 -401 -244 -455 -459 -19 -76 -19 -214 0 -290
37 -148 136 -284 269 -373 103 -69 178 -93 306 -99 130 -6 211 11 321 68 151
79 275 237 314 400 19 83 19 225 -1 302 -33 129 -120 262 -222 339 -61 47
-180 102 -250 117 -72 15 -215 13 -282 -5z"/>
</g>
</svg>
